<svg xmlns="http://www.w3.org/2000/svg" viewBox="0 0 94.97 51.2"><defs><style>.cls-1{fill:#232529;}</style></defs><title>logo</title><g id="Layer_2" data-name="Layer 2"><g id="Layer_1-2" data-name="Layer 1"><path class="cls-1" d="M32.43,1a9.68,9.68,0,0,1,3,.06,3,3,0,0,1,1.68.86,2.11,2.11,0,0,1,.5,1.48,5.29,5.29,0,0,1-.46,1.92,15.32,15.32,0,0,1-1.46,2.5q-1.1,1.62-2.66,3.7T29.63,16l-3.84,5q-2,2.58-3.84,5.16t-3.44,5q-1.56,2.38-2.66,4.42a17.49,17.49,0,0,0-1.5,3.48,2.79,2.79,0,0,0,.08,2.22q.48.78,2,.62a8.73,8.73,0,0,0,3.08-1.1,36.13,36.13,0,0,0,4.06-2.58q2.22-1.6,4.72-3.68t5-4.42q2.54-2.34,5-4.8t4.6-4.82q2.16-2.36,3.9-4.48t2.86-3.76l-.24.42-1,1.76-1.62,2.7q-.94,1.56-2,3.22t-2.06,3.32q-1,1.66-1.94,3T39.27,29a8.24,8.24,0,0,1-1,1.18q-.4.32-1.72,1.56t-3.24,2.94q-1.92,1.7-4.26,3.58t-4.76,3.48a37.6,37.6,0,0,1-4.72,2.68,11.1,11.1,0,0,1-4.18,1.16,6.93,6.93,0,0,1-1.88-.1,4.46,4.46,0,0,1-1.74-.72,4.06,4.06,0,0,1-1.28-1.5A5.69,5.69,0,0,1,10,40.79a9,9,0,0,1,.68-3.36,29.42,29.42,0,0,1,2-4.14q1.26-2.22,2.94-4.68t3.52-5q1.84-2.5,3.74-4.92l3.6-4.6q1.7-2.18,3.1-4T31.79,7a8.2,8.2,0,0,0,1-2q.18-.68-.58-.56a47.23,47.23,0,0,0-8.12,1.92,47.85,47.85,0,0,0-6.54,2.74,33.61,33.61,0,0,0-5.08,3.18,38.91,38.91,0,0,0-3.76,3.26,28.1,28.1,0,0,0-2.6,2.94q-1,1.36-1.58,2.24a5.46,5.46,0,0,0-.84,1.84,1.94,1.94,0,0,1-.32.92A1.72,1.72,0,0,1,2,23.62a2.54,2.54,0,0,1-1.28-.76A3,3,0,0,1,0,21.35a3.47,3.47,0,0,1,.3-2l.86-1.46a23.54,23.54,0,0,1,2.3-3.1,39.33,39.33,0,0,1,4-4,34.89,34.89,0,0,1,6-4.14A46.85,46.85,0,0,1,21.75,3.1,50.26,50.26,0,0,1,32.43,1ZM60.35.35A1.73,1.73,0,0,1,61.43,0,4.91,4.91,0,0,1,63,.14a2.6,2.6,0,0,1,1.14.54c.27.24.24.52-.08.84A113.52,113.52,0,0,0,53.79,13a119.15,119.15,0,0,0-7.5,10.84,87.06,87.06,0,0,0-5.14,9.68q-2,4.5-3.16,8a47.8,47.8,0,0,0-1.6,5.74,12.63,12.63,0,0,0-.36,3,1,1,0,0,1-.24.86.58.58,0,0,1-.7.06,2.48,2.48,0,0,1-.88-.88,5.7,5.7,0,0,1-.74-1.92,11.52,11.52,0,0,1,0-3.6,32,32,0,0,1,1.32-5.88,69.44,69.44,0,0,1,3-7.78,77.08,77.08,0,0,1,5-9.3,110.49,110.49,0,0,1,7.42-10.36A120.76,120.76,0,0,1,60.35.35Z"/><path class="cls-1" d="M53.35,21.12c-.05.05,0,.19.18.4a5.59,5.59,0,0,0,.62.64,11.32,11.32,0,0,0,1,.88q-.84,1.28-2,2.74t-2.34,3.36q-1.22,1.9-2.52,4.3A47.11,47.11,0,0,0,45.83,39a1.21,1.21,0,0,1-.58.74.74.74,0,0,1-.74,0,1.83,1.83,0,0,1-.64-.84,4.54,4.54,0,0,1-.32-1.66,5.79,5.79,0,0,1,.62-2.42,31.85,31.85,0,0,1,1.68-3.24q1-1.74,2.24-3.52t2.32-3.26q1.1-1.48,1.9-2.46A7.71,7.71,0,0,1,53.35,21.12Zm.76,14.28a4.75,4.75,0,0,0-.36,1.1q0,.34.12.4a.6.6,0,0,0,.46-.1,4.82,4.82,0,0,0,.62-.4q.76-.6,1.74-1.48t2-1.84q1-1,1.84-1.9a19.42,19.42,0,0,0,1.38-1.66,1.13,1.13,0,0,1,.72-.52.63.63,0,0,1,.6.28,1.58,1.58,0,0,1,.26.9,3.24,3.24,0,0,1-.3,1.34,9.48,9.48,0,0,1-.68,1q-.56.76-1.44,1.76t-2,2.08a18.36,18.36,0,0,1-2.34,1.92,11.08,11.08,0,0,1-2.48,1.3,4.25,4.25,0,0,1-2.38.22,2.93,2.93,0,0,1-1.66-1.08,3.28,3.28,0,0,1-.34-2.32A11,11,0,0,1,51,33.1q1-1.9,2.08-3.7,1.32-2.08,2.92-4.24a3.26,3.26,0,0,0-.54.06,3.57,3.57,0,0,1-.78,0,3.37,3.37,0,0,1-.92-.18,2,2,0,0,1-.88-.64A3.43,3.43,0,0,1,52,21.87a6.81,6.81,0,0,1,.82-2.78,8.8,8.8,0,0,1,1.84-2.36,5.39,5.39,0,0,1,2.16-1.3,1.48,1.48,0,0,1,1,.14,4,4,0,0,1,1,.64,2.28,2.28,0,0,1,.6.82.58.58,0,0,1-.06.68,16.9,16.9,0,0,0-1.62,1.6,18.5,18.5,0,0,0-1.18,1.48,13.74,13.74,0,0,0-1,1.48q.92,0,1.72-.12l1.4-.14q.72-.06,1.16-.14a1,1,0,0,1,.74.14,2.25,2.25,0,0,1,.58.54,1.81,1.81,0,0,1,.32.64.79.79,0,0,1,0,.4c0,.05-.19.29-.48.7l-1.14,1.6-1.56,2.2q-.86,1.22-1.68,2.5t-1.52,2.54A15.76,15.76,0,0,0,54.11,35.39Z"/><path class="cls-1" d="M67,20.71a4.19,4.19,0,0,1,3.08-1.1,1.9,1.9,0,0,1,1,.3q.32.24.12.48-.64.76-1.42,1.9t-1.58,2.48q-.8,1.34-1.62,2.82T65,30.49q-.7,1.42-1.28,2.7t-.9,2.2q-.44,1.16-.12,1.38t1.08-.24a13.66,13.66,0,0,0,1.9-1.48A32.21,32.21,0,0,0,68,32.71q1.2-1.32,2.36-2.84a35.13,35.13,0,0,0,2-3q.32-.52.52-.26a1.79,1.79,0,0,1,.24.94,7.59,7.59,0,0,1-.1,1.58,5.52,5.52,0,0,1-.5,1.62,20.25,20.25,0,0,1-1.1,1.8,23.63,23.63,0,0,1-1.62,2.12,26.53,26.53,0,0,1-2,2.1,16.18,16.18,0,0,1-2.24,1.78,9.15,9.15,0,0,1-2.34,1.12,4.23,4.23,0,0,1-2.3.08,2,2,0,0,1-1.54-1.34A5.45,5.45,0,0,1,59.31,36a19,19,0,0,1,1-3.8A40.12,40.12,0,0,1,62.17,28a40.85,40.85,0,0,1,2.32-4A23.8,23.8,0,0,1,67,20.71Zm9.64,0a4.19,4.19,0,0,1,3.08-1.1,2,2,0,0,1,1,.3q.34.24.14.48-.64.76-1.42,1.9t-1.6,2.48Q77,26.12,76.17,27.6t-1.52,2.9q-.7,1.42-1.28,2.7t-.9,2.2a5.5,5.5,0,0,0-.32,1.1c0,.23,0,.36.08.4s.21,0,.4-.1a5.88,5.88,0,0,0,.6-.4Q74,35.8,75,34.91t2-1.84q1-1,1.84-1.9a19.06,19.06,0,0,0,1.38-1.66,1.13,1.13,0,0,1,.72-.52.63.63,0,0,1,.6.28,1.57,1.57,0,0,1,.26.9,3.25,3.25,0,0,1-.3,1.34q-.12.24-.64,1a20.63,20.63,0,0,1-1.36,1.78q-.84,1-1.9,2.08a17.47,17.47,0,0,1-2.22,1.92,10.35,10.35,0,0,1-2.36,1.3,3.79,3.79,0,0,1-2.32.18,2,2,0,0,1-1.54-1.34A5.11,5.11,0,0,1,69,36a18.94,18.94,0,0,1,1-3.8A39.9,39.9,0,0,1,71.85,28a43.43,43.43,0,0,1,2.3-4A22.73,22.73,0,0,1,76.63,20.71Z"/><path class="cls-1" d="M92.27,15.31a1.93,1.93,0,0,1,1.44.22,2.76,2.76,0,0,1,.92.92,2.23,2.23,0,0,1,.34,1q0,.5-.26.62t-1.06.46A8.74,8.74,0,0,0,90.57,21a4.78,4.78,0,0,0-.94,2,9.42,9.42,0,0,0-.14,2.1q0,1.42.08,3t.16,2.94q.1,1.38.1,2a6.92,6.92,0,0,1-3.22,6.3,7.25,7.25,0,0,1-2.92,1.06A6.12,6.12,0,0,1,81,40.27a5,5,0,0,1-1.62-.82,5.47,5.47,0,0,1-1.16-1.2,4.85,4.85,0,0,1-.68-1.4,4.3,4.3,0,0,1-.18-1.46,7.64,7.64,0,0,1,.42-2.22,12,12,0,0,1,1-2.1,9.12,9.12,0,0,1,1.36-1.8A6.69,6.69,0,0,1,81.83,28a1.53,1.53,0,0,1,1.28-.08,3.6,3.6,0,0,1,1.2.7,3,3,0,0,1,.74.92q.22.46-.18.62a5.76,5.76,0,0,0-2.54,1.74,6.27,6.27,0,0,0-1.3,2.4,3.34,3.34,0,0,0,.08,2.18,1.72,1.72,0,0,0,1.64,1,2.48,2.48,0,0,0,1.16-.2,3.62,3.62,0,0,0,1-.66,3.78,3.78,0,0,0,.78-1,5.33,5.33,0,0,0,.48-1.28,12.22,12.22,0,0,0,.18-2.78q-.06-1.54-.2-3.06t-.3-2.9a12,12,0,0,1-.08-2.34,7.5,7.5,0,0,1,1-3.18,12.33,12.33,0,0,1,1.88-2.46A10.44,10.44,0,0,1,90.73,16,5,5,0,0,1,92.27,15.31Z"/></g></g></svg>