<?xml version="1.0" encoding="UTF-8" ?>
<!DOCTYPE svg PUBLIC "-//W3C//DTD SVG 1.1//EN" "http://www.w3.org/Graphics/SVG/1.1/DTD/svg11.dtd">
<svg width="167pt" height="36pt" viewBox="0 0 167 36" version="1.1" xmlns="http://www.w3.org/2000/svg">
<g id="#000000ff">
<path fill="#000000" opacity="1.00" d=" M 0.00 0.00 L 6.27 0.00 C 6.40 8.60 6.02 17.22 6.43 25.82 C 6.98 31.00 14.03 32.45 17.83 29.84 C 20.37 28.13 20.52 24.78 20.55 22.02 C 20.54 14.68 20.52 7.34 20.53 0.00 L 26.60 0.00 C 26.50 8.49 26.78 16.98 26.49 25.46 C 26.24 31.13 21.12 35.29 15.76 36.00 L 10.86 36.00 C 5.28 35.29 0.44 31.04 0.00 25.26 L 0.00 0.00 Z" />
<path fill="#000000" opacity="1.00" d=" M 48.60 0.00 L 63.61 0.00 C 66.40 0.60 69.43 1.31 71.41 3.52 C 74.07 6.47 74.53 10.92 73.40 14.61 C 72.52 17.49 69.86 19.15 67.53 20.78 C 70.26 25.84 72.84 30.98 75.63 36.00 L 68.85 36.00 C 66.33 31.39 64.19 26.59 61.64 22.00 C 59.34 22.02 57.04 22.01 54.74 21.99 C 54.73 26.66 54.73 31.33 54.73 36.00 L 48.60 36.00 C 48.60 24.00 48.60 12.00 48.60 0.00 M 54.74 5.02 C 54.73 9.01 54.73 12.99 54.74 16.98 C 58.00 16.87 61.44 17.50 64.58 16.36 C 69.17 14.56 68.82 6.67 64.04 5.37 C 60.99 4.68 57.83 5.06 54.74 5.02 Z" />
<path fill="#000000" opacity="1.00" d=" M 94.00 0.00 L 100.27 0.00 C 100.26 7.33 100.29 14.67 100.23 22.00 C 100.33 23.98 100.11 26.12 101.07 27.93 C 104.07 32.96 113.76 31.92 114.30 25.55 C 114.87 17.06 114.36 8.51 114.53 0.00 L 120.60 0.00 C 120.51 8.45 120.77 16.91 120.50 25.36 C 120.29 31.07 115.16 35.29 109.76 36.00 L 104.86 36.00 C 101.78 35.27 98.51 34.19 96.51 31.57 C 94.04 28.62 94.00 24.58 93.97 20.94 C 94.01 13.96 94.00 6.98 94.00 0.00 Z" />
<path fill="#000000" opacity="1.00" d=" M 151.13 0.00 L 155.66 0.00 C 161.25 0.57 165.93 4.78 166.64 10.42 C 164.59 10.46 162.55 10.48 160.50 10.50 C 159.84 4.85 152.46 3.35 148.47 6.48 C 146.41 8.06 146.64 11.81 148.95 13.07 C 153.50 15.80 159.33 15.97 163.39 19.63 C 166.99 22.66 167.48 28.75 164.26 32.23 C 162.25 34.62 159.07 35.38 156.16 36.00 L 151.64 36.00 C 145.73 35.39 139.98 31.33 139.54 25.02 C 141.58 25.02 143.61 25.01 145.65 25.00 C 146.33 31.02 154.14 32.63 158.57 29.72 C 160.85 28.06 160.74 24.11 158.24 22.71 C 153.67 20.12 147.95 19.82 143.91 16.22 C 140.70 13.63 139.93 8.65 142.18 5.19 C 144.05 2.03 147.72 0.72 151.13 0.00 Z" />
</g>
</svg>
