<svg xmlns="http://www.w3.org/2000/svg" viewBox="0 0 32 32"><defs><style>.cls-1{fill:#fe7b21;}.cls-2{fill:#fff;}.cls-3{fill:none;stroke:#fff;stroke-miterlimit:10;}</style></defs><title>vc_shortcode_button</title><g id="Layer_2" data-name="Layer 2"><g id="Button"><rect class="cls-1" width="32" height="32" rx="5" ry="5"/><path class="cls-2" d="M9.56,13.76a4.22,4.22,0,0,1,.8-.07,1.4,1.4,0,0,1,.93.25.71.71,0,0,1,.28.6.8.8,0,0,1-.57.74h0a.87.87,0,0,1,.7.85.91.91,0,0,1-.29.68,1.69,1.69,0,0,1-1.17.32,5.18,5.18,0,0,1-.68,0ZM10,15.14h.4c.46,0,.73-.24.73-.57s-.3-.55-.74-.55a1.9,1.9,0,0,0-.39,0Zm0,1.62a2.38,2.38,0,0,0,.37,0c.45,0,.87-.17.87-.66s-.4-.65-.87-.65H10Z"/><path class="cls-2" d="M14.28,16.42c0,.25,0,.47,0,.66h-.39l0-.4h0a.91.91,0,0,1-.8.45c-.38,0-.84-.21-.84-1.06V14.66h.44V16c0,.46.14.77.54.77a.64.64,0,0,0,.58-.4.66.66,0,0,0,0-.23V14.66h.44Z"/><path class="cls-2" d="M15.54,14v.7h.63V15h-.63V16.3c0,.3.09.47.33.47a1,1,0,0,0,.25,0l0,.33a1.09,1.09,0,0,1-.39.06.61.61,0,0,1-.48-.19.9.9,0,0,1-.17-.63V15h-.38v-.34h.38v-.58Z"/><path class="cls-2" d="M17.2,14v.7h.63V15H17.2V16.3c0,.3.08.47.33.47a1,1,0,0,0,.25,0l0,.33a1.11,1.11,0,0,1-.39.06.61.61,0,0,1-.48-.19.9.9,0,0,1-.17-.63V15h-.38v-.34h.38v-.58Z"/><path class="cls-2" d="M20.48,15.85a1.18,1.18,0,0,1-1.21,1.29,1.15,1.15,0,0,1-1.16-1.25,1.18,1.18,0,0,1,1.2-1.29A1.15,1.15,0,0,1,20.48,15.85Zm-1.92,0c0,.53.31.93.74.93s.74-.4.74-.94-.21-.93-.73-.93S18.56,15.42,18.56,15.88Z"/><path class="cls-2" d="M21,15.32c0-.25,0-.46,0-.66h.39l0,.4h0a.89.89,0,0,1,.8-.46c.34,0,.86.2.86,1v1.45h-.44v-1.4c0-.39-.15-.72-.56-.72a.65.65,0,0,0-.62.66v1.46H21Z"/><rect class="cls-3" x="3.5" y="11" width="25" height="10" rx="5" ry="5"/></g></g></svg>