<svg xmlns="http://www.w3.org/2000/svg" viewBox="0 0 1020.49 361.55"><defs><style>.cls-1{fill:none;stroke:#fe7b21;stroke-miterlimit:10;stroke-width:10px;}.cls-2{font-size:180px;fill:#fe7b21;font-family:Poppins-Light, Poppins;}</style></defs><title>logo-text</title><g id="Layer_2" data-name="Layer 2"><g id="Layer_1-2" data-name="Layer 1"><path class="cls-1" d="M207.08,268.27,257.6,239.1V64.1c-63.62-36.71-39-22.51-101-58.33C39.71,73.25,121.85,25.79,5,93.27v175l50.52,29.17v-175l101-58.35,50.52,29.17c-62.4,36-38.6,22.3-101,58.32v58.35l101-58.35v56.88"/><path class="cls-1" d="M106,93.27"/><path class="cls-1" d="M106,93.27,55.52,122.45v175c62.47,36,38.49,22.2,101,58.33,115.88-66.92,35-20.18,151.56-87.5v-175L257.6,64.1v175l-101,58.35L106,268.27c60.3-34.82,39.38-22.75,101-58.32V151.6L106,209.95v-57.6"/><text class="cls-2" transform="translate(332.72 258.77)">familab</text></g></g></svg>