<?xml version="1.0" encoding="UTF-8" ?>
<!DOCTYPE svg PUBLIC "-//W3C//DTD SVG 1.1//EN" "http://www.w3.org/Graphics/SVG/1.1/DTD/svg11.dtd">
<svg width="200pt" height="54pt" viewBox="0 0 200 54" version="1.1" xmlns="http://www.w3.org/2000/svg">
<g id="#000000ff">
<path fill="#000000" opacity="1.00" d=" M 181.48 0.00 L 186.61 0.00 C 189.83 0.64 193.02 1.43 196.21 2.21 C 196.52 6.47 196.79 10.74 197.04 15.01 C 196.37 14.97 195.04 14.89 194.38 14.85 C 193.29 11.50 192.16 7.91 189.40 5.52 C 186.75 3.04 182.49 2.45 179.30 4.18 C 175.27 6.60 175.00 12.67 177.88 16.09 C 183.12 22.39 191.60 24.88 196.74 31.28 C 200.63 36.09 200.32 43.63 196.17 48.20 C 193.29 51.59 189.00 53.41 184.66 54.00 L 180.56 54.00 C 176.48 53.53 172.46 52.68 168.46 51.80 C 167.78 47.45 167.19 43.08 166.66 38.71 C 167.63 38.36 168.61 38.05 169.61 37.77 C 170.68 41.23 171.82 44.87 174.50 47.46 C 177.57 50.70 182.79 51.80 186.83 49.88 C 191.69 47.38 192.33 40.17 188.69 36.36 C 183.46 30.78 175.51 28.52 170.70 22.45 C 167.68 18.77 166.86 13.43 168.86 9.08 C 171.00 3.99 176.24 0.98 181.48 0.00 Z" />
<path fill="#000000" opacity="1.00" d=" M 0.00 1.16 C 6.95 1.58 13.92 1.68 20.87 1.09 C 20.83 1.65 20.74 2.77 20.69 3.34 C 18.89 3.70 17.10 4.08 15.30 4.46 C 14.72 11.63 15.12 18.83 14.98 26.02 C 14.93 31.46 14.99 37.25 17.85 42.07 C 22.06 49.88 34.91 50.02 39.56 42.54 C 43.90 35.87 42.51 27.56 42.73 20.04 C 42.53 15.12 43.39 10.01 41.85 5.25 C 40.34 3.78 37.94 3.85 36.03 3.19 C 36.02 2.66 35.99 1.59 35.98 1.06 C 42.18 1.72 48.42 1.58 54.62 1.05 C 54.51 5.23 48.19 2.60 47.54 6.35 C 45.56 18.07 49.19 30.51 44.93 41.86 C 40.46 53.08 25.45 55.55 15.54 50.48 C 9.84 47.59 6.71 41.31 6.26 35.12 C 5.48 24.93 6.54 14.69 5.69 4.50 C 3.79 4.06 1.88 3.66 0.00 3.16 L 0.00 1.16 Z" />
<path fill="#000000" opacity="1.00" d=" M 58.46 1.11 C 62.95 0.86 67.46 1.54 71.96 1.21 C 78.11 0.93 84.90 0.25 90.32 3.79 C 95.40 6.94 98.07 13.91 95.51 19.47 C 93.60 23.56 89.81 26.39 85.81 28.25 C 90.01 34.02 94.12 39.88 98.70 45.37 C 101.21 48.47 105.01 50.03 108.85 50.70 C 108.87 51.25 108.90 52.34 108.91 52.89 C 102.65 52.86 94.85 54.04 90.35 48.62 C 85.74 42.81 81.76 36.52 77.33 30.58 C 76.40 29.20 74.55 29.54 73.15 29.18 C 72.95 35.95 72.77 42.75 73.32 49.52 C 75.10 49.93 76.90 50.30 78.69 50.70 C 78.72 51.25 78.78 52.34 78.81 52.89 C 71.92 52.35 65.02 52.36 58.13 52.89 C 58.13 52.35 58.14 51.27 58.14 50.73 C 59.96 50.31 61.79 49.90 63.61 49.46 C 64.39 41.65 63.84 33.80 64.00 25.97 C 63.85 18.79 64.38 11.58 63.59 4.43 C 61.68 3.98 59.76 3.60 57.84 3.19 C 57.99 2.67 58.30 1.63 58.46 1.11 M 73.28 4.27 C 72.69 11.85 73.13 19.46 73.00 27.05 C 76.42 27.01 80.23 27.26 83.04 24.91 C 88.29 20.86 87.96 12.72 84.72 7.52 C 82.20 3.80 77.29 3.66 73.28 4.27 Z" />
<path fill="#000000" opacity="1.00" d=" M 108.12 1.12 C 115.02 1.62 121.95 1.69 128.85 1.08 C 128.81 1.64 128.73 2.78 128.69 3.34 C 126.91 3.71 125.13 4.06 123.36 4.45 C 122.65 10.95 123.14 17.51 122.99 24.04 C 122.94 30.34 122.63 37.19 126.24 42.70 C 129.05 47.37 135.20 48.78 140.23 47.64 C 144.80 46.74 148.23 42.76 149.52 38.43 C 151.49 32.13 150.50 25.44 150.73 18.95 C 150.55 14.36 151.32 9.58 149.84 5.13 C 148.28 3.76 146.02 3.83 144.10 3.33 C 144.06 2.76 143.99 1.61 143.95 1.03 C 150.08 1.71 156.26 1.67 162.39 1.00 C 163.11 5.50 156.01 2.33 155.53 6.33 C 154.13 16.19 155.83 26.25 154.55 36.13 C 153.69 42.73 149.56 49.14 143.10 51.40 C 134.82 54.46 123.95 53.26 118.20 45.99 C 113.60 40.04 113.95 32.11 114.00 25.00 C 113.85 18.15 114.37 11.28 113.64 4.46 C 111.81 4.06 109.98 3.67 108.15 3.31 C 108.14 2.76 108.12 1.66 108.12 1.12 Z" />
</g>
</svg>
