<?xml version="1.0" encoding="UTF-8" ?>
<!DOCTYPE svg PUBLIC "-//W3C//DTD SVG 1.1//EN" "http://www.w3.org/Graphics/SVG/1.1/DTD/svg11.dtd">
<svg width="437pt" height="202pt" viewBox="0 0 437 202" version="1.1" xmlns="http://www.w3.org/2000/svg">
<g id="#000000ff">
<path fill="#000000" opacity="1.00" d=" M 0.00 0.00 L 214.00 0.00 C 213.99 6.23 214.03 12.47 213.96 18.70 C 211.68 18.58 209.21 19.04 207.14 17.79 C 208.54 20.32 212.21 18.65 214.53 19.17 C 211.81 19.48 209.06 19.44 206.35 19.80 C 205.95 19.48 205.57 19.16 205.19 18.84 C 206.10 15.13 205.50 11.31 205.53 7.54 C 140.66 7.51 75.80 7.57 10.93 7.51 C 9.46 7.26 7.20 7.83 7.52 9.77 C 7.54 70.57 7.54 131.37 7.52 192.16 C 7.17 194.13 9.44 194.75 10.95 194.49 C 75.81 194.43 140.66 194.49 205.52 194.46 C 205.77 188.56 205.61 182.65 205.58 176.75 C 207.89 175.05 210.70 174.54 213.53 174.59 C 214.54 183.68 213.75 192.87 214.00 202.00 L 0.00 202.00 L 0.00 0.00 Z" />
<path fill="#000000" opacity="1.00" d=" M 113.80 36.81 C 119.02 33.15 126.02 33.47 131.80 35.54 C 131.34 37.85 130.88 40.16 130.41 42.47 C 125.17 40.50 118.69 40.31 114.26 44.18 C 108.70 49.14 107.19 56.98 106.65 64.07 C 106.34 72.03 106.56 80.00 106.52 87.97 C 104.01 88.00 101.51 88.01 99.00 88.00 C 99.00 70.33 99.00 52.67 99.00 35.00 C 101.50 35.00 104.00 35.00 106.50 35.00 C 106.51 39.16 106.51 43.32 106.49 47.48 C 108.04 43.43 110.10 39.30 113.80 36.81 Z" />
<path fill="#000000" opacity="1.00" d=" M 209.49 38.57 C 215.73 33.10 225.45 32.65 232.67 36.39 C 237.15 38.64 239.93 43.40 240.18 48.36 C 237.86 48.38 235.54 48.39 233.22 48.38 C 231.69 39.86 219.33 38.02 214.03 44.00 C 211.52 46.89 211.64 51.85 214.76 54.26 C 221.80 59.15 231.99 57.31 238.22 63.82 C 243.91 69.46 243.08 80.01 236.56 84.69 C 229.48 89.88 219.34 90.40 211.59 86.41 C 206.72 83.95 203.40 78.99 202.83 73.58 C 205.07 73.55 207.32 73.55 209.57 73.59 C 211.71 82.84 224.06 84.70 231.15 80.15 C 235.32 77.61 236.03 70.96 232.15 67.85 C 225.49 63.06 216.10 64.64 209.65 59.32 C 203.34 54.36 203.53 43.73 209.49 38.57 Z" />
<path fill="#000000" opacity="1.00" d=" M 33.75 35.01 C 36.17 35.00 38.58 35.00 41.00 35.00 C 41.04 45.33 40.94 55.66 41.04 65.99 C 41.07 71.37 43.48 77.04 48.31 79.78 C 53.98 82.97 61.39 82.19 66.75 78.73 C 71.33 75.79 73.62 70.29 73.70 64.98 C 73.83 54.99 73.70 45.00 73.75 35.01 C 76.17 35.00 78.58 35.00 81.00 35.00 C 81.00 52.67 81.00 70.33 81.00 88.00 C 78.58 88.00 76.17 88.00 73.76 87.99 C 73.73 84.96 73.73 81.93 73.82 78.90 C 66.91 91.80 45.66 92.55 37.64 80.40 C 34.80 76.20 33.74 71.04 33.75 66.02 C 33.75 55.68 33.75 45.35 33.75 35.01 Z" />
<path fill="#000000" opacity="1.00" d=" M 141.75 35.01 C 144.17 35.00 146.58 35.00 149.00 35.00 C 149.04 45.36 148.93 55.73 149.04 66.09 C 149.07 71.67 151.76 77.55 156.93 80.12 C 162.96 83.07 170.67 81.99 175.91 77.88 C 180.05 74.61 181.77 69.17 181.73 64.04 C 181.78 54.36 181.72 44.68 181.75 35.01 C 184.17 35.00 186.58 35.00 189.00 35.00 C 189.00 52.67 189.00 70.33 189.00 88.00 C 186.58 88.00 184.17 88.00 181.76 87.99 C 181.73 84.96 181.73 81.92 181.82 78.89 C 174.91 91.81 153.64 92.55 145.63 80.38 C 142.79 76.18 141.74 71.02 141.75 66.01 C 141.75 55.67 141.75 45.34 141.75 35.01 Z" />
<path fill="#000000" opacity="1.00" d=" M 281.24 82.01 C 285.16 81.99 289.08 82.00 293.00 82.00 C 293.01 97.46 292.99 112.91 293.01 128.36 C 298.68 122.60 304.28 116.76 309.96 111.00 C 315.29 111.00 320.62 110.99 325.95 111.01 C 318.33 118.66 310.74 126.34 303.11 133.99 C 312.44 144.03 321.83 154.01 331.15 164.05 C 326.07 164.08 321.00 164.06 315.93 164.06 C 308.26 155.90 300.67 147.67 293.01 139.50 C 292.98 147.68 293.02 155.87 292.99 164.06 C 289.08 164.07 285.16 164.07 281.25 164.05 C 281.24 136.71 281.26 109.36 281.24 82.01 Z" />
<path fill="#000000" opacity="1.00" d=" M 41.24 111.31 C 48.15 108.97 56.21 109.63 62.47 113.48 C 66.44 115.94 68.55 120.51 68.89 125.05 C 65.18 125.07 61.47 125.06 57.76 125.07 C 56.05 119.48 48.78 119.07 44.26 121.23 C 40.91 122.43 40.14 127.80 43.42 129.55 C 49.93 133.04 57.99 132.53 64.20 136.76 C 71.14 141.23 72.54 151.99 67.25 158.24 C 64.04 161.97 59.22 163.92 54.44 164.65 C 47.23 165.76 39.12 164.56 33.64 159.40 C 30.39 156.51 28.57 152.33 28.35 148.02 C 32.00 147.99 35.65 147.99 39.30 148.01 C 40.29 152.87 45.42 155.19 49.99 154.95 C 53.53 154.97 58.30 153.90 59.31 149.97 C 60.19 146.82 57.30 144.42 54.63 143.53 C 47.95 141.32 40.34 140.98 34.68 136.35 C 30.29 132.92 28.97 126.72 30.34 121.50 C 31.87 116.47 36.49 113.06 41.24 111.31 Z" />
<path fill="#000000" opacity="1.00" d=" M 95.05 118.38 C 100.88 109.43 114.14 107.63 123.01 112.88 C 129.48 116.83 132.01 124.79 132.04 132.02 C 132.09 142.70 132.05 153.38 132.06 164.06 C 128.10 164.07 124.14 164.07 120.19 164.05 C 120.15 154.05 120.24 144.04 120.15 134.03 C 120.22 129.40 118.42 124.18 113.96 122.10 C 108.77 119.85 102.13 121.20 98.27 125.35 C 95.69 128.21 95.11 132.23 95.13 135.94 C 95.11 145.31 95.14 154.68 95.12 164.05 C 91.14 164.07 87.17 164.07 83.19 164.05 C 83.17 146.37 83.19 128.69 83.18 111.01 C 87.16 110.99 91.14 110.99 95.12 111.01 C 95.14 113.46 95.13 115.92 95.05 118.38 Z" />
<path fill="#000000" opacity="1.00" d=" M 153.14 117.18 C 163.98 107.00 183.29 107.56 193.08 118.94 C 198.50 125.27 199.91 133.97 199.24 142.05 C 185.00 142.09 170.76 142.03 156.52 142.09 C 157.15 144.88 158.14 147.71 160.19 149.80 C 167.43 157.56 181.87 156.46 187.72 147.53 C 190.93 148.96 194.17 150.32 197.40 151.72 C 189.82 165.79 169.39 168.79 156.54 160.49 C 142.31 151.37 140.66 128.43 153.14 117.18 M 156.51 132.98 C 166.93 133.02 177.35 133.01 187.77 132.98 C 187.00 125.67 180.37 119.85 173.04 120.05 C 165.26 119.43 157.43 125.03 156.51 132.98 Z" />
<path fill="#000000" opacity="1.00" d=" M 216.68 116.67 C 226.58 107.81 244.50 107.13 253.15 118.04 C 253.12 115.70 253.11 113.35 253.12 111.01 C 257.06 110.99 261.00 110.99 264.94 111.01 C 264.94 128.69 264.95 146.37 264.93 164.06 C 261.00 164.07 257.06 164.07 253.13 164.05 C 253.11 161.66 253.12 159.26 253.14 156.87 C 244.95 167.18 228.52 167.22 218.45 159.65 C 204.93 149.94 204.16 127.54 216.68 116.67 M 232.36 121.49 C 224.52 123.11 219.00 131.16 220.13 139.06 C 220.52 148.34 230.07 155.53 239.12 153.77 C 247.67 152.89 254.10 144.40 252.94 135.92 C 252.70 125.93 241.67 118.95 232.36 121.49 Z" />
<path fill="#000000" opacity="1.00" d=" M 341.16 117.16 C 352.01 107.00 371.30 107.57 381.08 118.94 C 386.50 125.27 387.91 133.97 387.24 142.06 C 373.00 142.09 358.76 142.03 344.52 142.09 C 345.36 147.65 349.50 152.40 354.87 154.04 C 362.08 156.33 371.36 154.40 375.49 147.61 C 378.87 148.79 382.13 150.31 385.40 151.79 C 377.61 165.98 356.77 168.90 343.95 160.09 C 330.23 150.70 328.85 128.24 341.16 117.16 M 344.51 132.98 C 354.93 133.02 365.34 133.00 375.76 132.99 C 375.02 125.67 368.37 119.86 361.03 120.05 C 353.26 119.43 345.43 125.03 344.51 132.98 Z" />
<path fill="#000000" opacity="1.00" d=" M 419.70 111.82 C 424.80 108.85 431.18 109.87 436.48 111.78 C 435.82 115.45 435.15 119.13 434.52 122.81 C 429.34 120.56 422.51 119.93 418.17 124.19 C 413.92 128.58 412.77 134.98 412.29 140.84 C 411.94 148.57 412.21 156.32 412.12 164.05 C 408.16 164.07 404.21 164.07 400.25 164.05 C 400.24 146.37 400.26 128.69 400.24 111.01 C 404.20 110.99 408.16 110.99 412.12 111.01 C 412.13 114.96 412.14 118.92 412.08 122.87 C 413.61 118.65 415.64 114.18 419.70 111.82 Z" />
</g>
</svg>
