<?xml version="1.0" encoding="UTF-8" ?>
<!DOCTYPE svg PUBLIC "-//W3C//DTD SVG 1.1//EN" "http://www.w3.org/Graphics/SVG/1.1/DTD/svg11.dtd">
<svg width="100pt" height="26pt" viewBox="0 0 100 26" version="1.1" xmlns="http://www.w3.org/2000/svg">
<g id="#ffffffff">
<path fill="#ffffff" opacity="1.00" d=" M 0.00 0.00 L 11.00 0.00 C 9.83 0.69 8.66 1.39 7.50 2.10 C 7.81 8.12 6.42 14.51 8.73 20.24 C 10.91 25.17 18.80 24.27 20.26 19.23 C 21.73 13.78 20.80 8.03 20.88 2.45 C 19.59 1.65 18.31 0.84 17.05 0.00 L 27.59 0.00 C 26.16 0.79 24.75 1.61 23.33 2.42 C 22.81 10.52 25.94 23.08 15.49 26.00 L 10.25 26.00 C -0.00 22.55 3.63 10.16 2.98 2.01 C 1.98 1.65 0.99 1.28 0.00 0.90 L 0.00 0.00 Z" />
<path fill="#ffffff" opacity="1.00" d=" M 28.09 0.00 L 41.33 0.00 C 48.98 1.15 49.48 11.16 42.61 13.93 C 45.96 18.65 49.21 23.90 54.93 26.00 L 47.78 26.00 C 42.58 23.24 40.95 17.02 36.48 13.43 C 35.91 16.89 35.94 20.39 36.00 23.88 C 37.25 24.58 38.50 25.30 39.77 26.00 L 27.84 26.00 C 29.05 25.18 30.48 24.58 31.40 23.41 C 31.80 16.45 31.36 9.46 31.57 2.49 C 30.39 1.69 29.22 0.87 28.09 0.00 M 35.98 1.69 C 36.01 5.57 35.99 9.45 36.02 13.33 C 45.24 15.02 45.05 -1.00 35.98 1.69 Z" />
<path fill="#ffffff" opacity="1.00" d=" M 53.08 0.00 L 65.00 0.00 C 63.83 0.69 62.66 1.39 61.50 2.10 C 61.81 8.12 60.42 14.51 62.73 20.24 C 64.92 25.18 72.80 24.28 74.26 19.23 C 75.73 13.78 74.80 8.03 74.88 2.45 C 73.59 1.65 72.31 0.84 71.05 0.00 L 81.69 0.00 C 80.22 0.78 78.78 1.59 77.33 2.40 C 76.80 10.51 79.95 23.08 69.49 26.00 L 64.25 26.00 C 54.06 22.58 57.59 10.28 56.99 2.17 C 55.69 1.44 54.39 0.71 53.08 0.00 Z" />
<path fill="#ffffff" opacity="1.00" d=" M 88.70 0.00 L 93.88 0.00 C 95.19 0.45 96.50 0.91 97.81 1.38 C 97.76 3.53 97.76 5.68 97.71 7.83 C 95.83 5.43 94.55 1.64 91.00 1.40 C 88.00 1.19 85.76 4.83 87.66 7.27 C 90.98 11.41 97.99 12.25 99.20 18.07 C 99.89 21.92 96.36 24.59 93.28 26.00 L 87.99 26.00 C 86.55 25.62 85.12 25.23 83.70 24.83 C 83.39 22.42 83.22 19.99 83.37 17.56 C 85.21 20.15 86.33 24.20 90.07 24.49 C 93.33 25.06 96.35 21.50 94.56 18.51 C 91.40 14.27 84.30 13.58 83.08 7.81 C 82.34 4.06 85.69 1.39 88.70 0.00 Z" />
</g>
<g id="#000000ff">
</g>
</svg>
